<svg width="70" height="56" viewBox="0 0 70 56" fill="none" xmlns="http://www.w3.org/2000/svg">
<path d="M35.259 43.1945H38.6178C41.1618 43.1945 43.4275 42.8113 45.415 42.0449C47.4024 41.2784 49.0719 40.2246 50.4233 38.8833C51.8146 37.5421 52.8679 35.9517 53.5635 34.1314C54.3188 32.2537 54.6765 30.2226 54.6765 28.0191C54.6765 25.8156 54.2989 23.8421 53.5635 21.9643C52.8083 20.0865 51.7549 18.477 50.3438 17.1357C48.9924 15.7945 47.3229 14.7406 45.3355 13.9742C43.348 13.2078 41.1022 12.8245 38.6178 12.8245H35.259V43.1945ZM20.6313 0.868164H42.2946C46.1304 0.868164 49.7079 1.61544 53.0468 3.09083C56.4255 4.58537 59.3669 6.5781 61.8512 9.06902C64.3952 11.5216 66.3826 14.3957 67.8335 17.7106C69.2843 20.9679 69.9998 24.3977 69.9998 28C69.9998 31.6022 69.2843 34.9745 67.8335 38.2893C66.4423 41.5467 64.4747 44.44 61.9307 46.9309C59.4464 49.4218 56.505 51.4145 53.1263 52.9091C49.7874 54.4036 46.1901 55.1318 42.2946 55.1318H20.6313V0.868164Z" fill="#0083F0"/>
<path d="M0 22.4629C0 21.3303 0.216455 20.2732 0.669027 19.2728C1.1216 18.2345 1.73158 17.3285 2.51866 16.5734C3.30574 15.8184 4.21088 15.2332 5.25377 14.799C6.336 14.3649 7.47728 14.1572 8.6579 14.1572C9.83852 14.1572 10.9404 14.3649 11.9833 14.799C13.0656 15.2332 14.0101 15.8184 14.7971 16.5734C15.5842 17.3285 16.1942 18.2345 16.6468 19.2728C17.0993 20.2732 17.3158 21.3303 17.3158 22.4629C17.3158 23.5955 17.0993 24.6903 16.6468 25.7285C16.1942 26.729 15.5842 27.5973 14.7971 28.3523C14.0101 29.1074 13.0656 29.6926 11.9833 30.1267C10.9404 30.5609 9.83852 30.7685 8.6579 30.7685C7.47728 30.7685 6.336 30.5609 5.25377 30.1267C4.21088 29.6926 3.30574 29.1074 2.51866 28.3523C1.73158 27.5973 1.1216 26.729 0.669027 25.7285C0.216455 24.6903 0 23.5955 0 22.4629Z" fill="#0083F0"/>
<path d="M0 46.6413C0 45.4836 0.216455 44.403 0.669027 43.3803C1.1216 42.319 1.73158 41.3928 2.51866 40.621C3.30574 39.8492 4.21088 39.251 5.25377 38.8072C6.336 38.3634 7.47728 38.1511 8.6579 38.1511C9.83852 38.1511 10.9404 38.3634 11.9833 38.8072C13.0656 39.251 14.0101 39.8492 14.7971 40.621C15.5842 41.3928 16.1942 42.319 16.6468 43.3803C17.0993 44.403 17.3158 45.4836 17.3158 46.6413C17.3158 47.7991 17.0993 48.9183 16.6468 49.9795C16.1942 51.0022 15.5842 51.8898 14.7971 52.6617C14.0101 53.4335 13.0656 54.0317 11.9833 54.4755C10.9404 54.9193 9.83852 55.1316 8.6579 55.1316C7.47728 55.1316 6.336 54.9193 5.25377 54.4755C4.21088 54.0317 3.30574 53.4335 2.51866 52.6617C1.73158 51.8898 1.1216 51.0022 0.669027 49.9795C0.216455 48.9183 0 47.7991 0 46.6413Z" fill="#0083F0"/>
</svg>
